<svg xmlns="http://www.w3.org/2000/svg" viewBox="0 0 48.8 194.47"><title>alexa-sword</title><path d="M131.32,169.53a15.2,15.2,0,0,0-9-3c-4.07.09-6.6,2.11-8.63,3.73-1.75,1.4-3.12,2.5-5.24,2.55-2.29,0-3.84-1.16-5.81-2.7-2.29-1.8-4.89-3.83-9-3.83h0a15.19,15.19,0,0,0-9.6,3.84,1.86,1.86,0,0,0-.39,1.39c0,1,.39,1.26.39,1.26a15.18,15.18,0,0,0,9.6,3.84h0a12.09,12.09,0,0,0,7.29-2.52l-.92-.71a24.56,24.56,0,0,0-2.46-1.77,7.58,7.58,0,0,1-3.91,1.08h0a9.63,9.63,0,0,1-4.29-1.09c-.86.45-1.73,1-2.77,1.48a11.12,11.12,0,0,1,7.06-2.88h0c2.78,0,4.56,1.39,6.61,3s4.52,3.54,8.08,3.54h.23c3.44-.08,5.65-1.85,7.6-3.4s3.52-2.81,6.26-2.87a11.72,11.72,0,0,1,6.76,2.35c-.85-.39-1.87-.88-2.66-1.22a10,10,0,0,1-4.1.83,7.45,7.45,0,0,1-3.32-.83,18.23,18.23,0,0,0-2.7,1.91l-.74.59a11.82,11.82,0,0,0,6.67,2.25,15.2,15.2,0,0,0,9-3,2.77,2.77,0,0,0,1.08-1.86A3.35,3.35,0,0,0,131.32,169.53Z" transform="translate(-83.6 -10.76)"/><path d="M110.1,166.35l-.23,4a6.85,6.85,0,0,1,1.86.85c.56-.38,1.12-.83,1.73-1.31s1-.79,1.53-1.19A11.51,11.51,0,0,0,110.1,166.35Z" transform="translate(-83.6 -10.76)"/><path d="M105.91,166.49a12.72,12.72,0,0,0-4.33,2.2c.46.34.9.68,1.32,1,.7.55,1.35,1.05,2,1.47a8.21,8.21,0,0,1,1.26-.65Z" transform="translate(-83.6 -10.76)"/><polygon points="24.35 163.92 21.01 163.92 21.26 187.52 24.35 194.47 27.43 187.52 27.68 163.92 24.35 163.92"/><path d="M103.55,170.21a11.83,11.83,0,0,0,3.79,2.14l-.63-148.5L108,10.76l-7.1,13ZM108,10.76l1.29,13.09-.63,148.59a9.16,9.16,0,0,0,3.79-1.79L115.1,23.79Zm-4.39,163h1.95l-2-1Zm8.78,0,0-1.4-2.73,1.4Z" transform="translate(-83.6 -10.76)"/></svg>